<svg width="110" height="120" viewBox="0 0 110 120" fill="none" xmlns="http://www.w3.org/2000/svg">
<g clip-path="url(#clip0_14_15)">
<path d="M7.354 0.0671387C5.99938 20.9001 22.2424 39.0517 40.6909 47.8877C47.7509 51.2608 56.332 53.7415 63.3019 50.0335C70.2717 46.3255 72.3803 34.2134 65.3342 30.642C60.9156 28.4462 55.2941 30.9511 52.4731 35.1424C49.652 39.3337 49.182 44.6825 49.4173 49.6809C50.3997 69.0795 62.4387 87.5411 79.5596 95.8877" stroke="white" stroke-width="2" stroke-miterlimit="10" stroke-dasharray="12 12"/>
</g>
<path d="M87.2112 105.365L95.6891 104.032L94.156 95.4986L96.546 94.2452L98.6924 106.191L86.8234 108.059L87.2112 105.365Z" fill="white"/>
<defs>
<clipPath id="clip0_14_15">
<rect width="79.6763" height="91.6617" fill="white" transform="matrix(0.997665 0.0682985 -0.0695231 0.99758 6.37268 0)"/>
</clipPath>
</defs>
</svg>
