<svg width="40" height="40" viewBox="0 0 40 40" fill="none" xmlns="http://www.w3.org/2000/svg">
<path d="M14.4913 6.06085C15.1237 6.04903 15.6675 6.16722 16.2366 6.39177C16.8184 6.61632 17.3622 6.93542 17.8554 7.31361C18.8292 8.06999 19.5627 9.09819 19.8916 10.2328C19.9422 10.3982 19.9801 10.5519 20.0054 10.7173C20.271 9.14546 21.2954 7.70361 22.7371 6.85269C23.635 6.33268 24.6847 6.03722 25.7344 6.00176C26.2656 5.98994 26.8094 6.03722 27.3279 6.1554C27.5809 6.21449 28.3523 6.45086 27.8971 6.81723C27.6694 7.00633 27.3153 6.93542 27.0118 6.88814C25.4436 6.6045 23.7236 6.97087 22.5221 7.9518C21.3207 8.93273 20.701 10.54 21.0677 11.9937C21.131 12.2419 21.2321 12.4901 21.4471 12.6437C21.6621 12.7974 22.0162 12.8092 22.168 12.6083C22.4083 12.301 22.0415 11.8992 21.7633 11.6155C21.4851 11.3319 21.2827 10.93 21.4218 10.5637C21.561 10.1973 22.1933 10.0555 22.383 10.3982C22.4968 10.6109 22.3957 10.8591 22.4589 11.0955C22.5474 11.4382 22.9395 11.6273 23.1418 11.9228C23.4074 12.3246 23.243 12.8801 22.8889 13.2228C22.5348 13.5655 22.0542 13.7546 21.5863 13.9319C23.8753 13.3174 26.2403 12.9392 28.6179 12.8092C29.3009 12.7737 30.047 12.7619 30.6288 13.1046C30.8691 13.2465 31.0967 13.5301 30.9576 13.7665C30.8944 13.8728 30.7932 13.9319 30.6794 13.991C29.6423 14.5819 28.5926 15.1729 27.5556 15.7638C26.7462 16.2247 25.8736 16.6974 24.9377 16.6147C23.7742 16.5083 22.7624 15.5629 21.6115 15.7638C21.8139 16.1301 22.2439 16.3311 22.6486 16.5083C24.9124 17.4538 27.3659 17.9738 29.8447 18.0447C30.1103 18.0566 30.4644 18.1511 30.4391 18.3875C30.4264 18.5293 30.2747 18.612 30.1482 18.6829C28.9973 19.2738 27.8085 19.8648 26.5185 20.1366C25.2286 20.4084 23.7995 20.3021 22.7118 19.6048C22.3704 19.3802 21.8392 19.132 21.6115 19.4629C21.4471 19.7111 21.6874 20.0184 21.953 20.1602C22.2186 20.302 22.5474 20.373 22.7371 20.5975C23.1418 21.1057 22.598 22.0275 23.1545 22.3821C23.2556 22.453 23.3948 22.4766 23.4833 22.5712C23.6603 22.7366 23.5465 23.0557 23.3315 23.1621C23.1165 23.2685 22.8256 23.2094 22.6106 23.0912C22.2565 22.8903 22.0289 22.5239 22.0163 22.1457C22.0036 21.8739 22.1048 21.6021 22.0542 21.3303C22.0036 21.0584 21.7254 20.7866 21.4471 20.893C21.2068 20.9875 21.1689 21.2712 21.1563 21.5193C21.0804 25.4312 21.6748 29.4259 20.6504 33.2196C20.5492 33.6096 20.271 34.0823 19.8536 33.9878C19.5627 33.9169 19.4489 33.6096 19.373 33.3732C18.1842 29.3431 19.0948 25.0531 18.7281 20.8812C18.3992 20.7393 18.0451 21.0702 17.9819 21.4012C17.9187 21.7321 18.0072 22.0748 17.9313 22.3939C17.8175 22.8666 17.3242 23.233 16.8184 23.2212C16.6287 23.2212 16.3884 23.1267 16.3631 22.9494C16.3125 22.6776 16.7172 22.5594 16.9322 22.3703C17.4507 21.8975 16.7678 20.9402 17.2737 20.4557C17.476 20.2548 17.7922 20.2311 18.0578 20.113C18.3233 19.9948 18.5384 19.6639 18.3486 19.4629C18.1716 19.2857 17.8681 19.392 17.6404 19.4984C14.9972 20.6802 11.5952 20.1248 9.53376 18.1747C12.6449 17.9029 15.8951 17.5247 18.4372 15.8465C17.5519 15.4683 16.6413 16.2956 15.7054 16.5438C14.504 16.8747 13.2646 16.2365 12.1896 15.622C11.2158 15.0665 10.242 14.4992 9.26817 13.9437C9.17964 13.8965 9.09111 13.8374 9.04053 13.7665C8.91406 13.5537 9.10376 13.2937 9.33141 13.1519C9.91316 12.7855 10.672 12.7855 11.3802 12.8092C13.7831 12.9155 16.1734 13.3174 18.4625 14.0028C17.9945 13.6956 17.5266 13.3883 17.0587 13.081C16.8816 12.9628 16.7045 12.8328 16.654 12.6437C16.5275 12.1473 17.3242 11.8873 17.5013 11.4146C17.6404 11.0482 17.4254 10.5637 17.7416 10.3155C18.0198 10.0909 18.5004 10.3155 18.6016 10.6464C18.7028 10.9773 18.5257 11.3319 18.3107 11.6037C18.0957 11.8873 17.8301 12.1355 17.691 12.4546C17.8934 12.7264 18.2475 12.9037 18.6016 12.9037C19.2972 11.4973 19.0695 9.72456 18.0578 8.50727C17.4634 7.78634 16.6034 7.26633 15.6549 7.02996C15.1743 6.91178 14.681 6.85269 14.1878 6.87633C13.644 6.89996 13.1002 7.13633 12.5564 7.01815C12.2908 6.95905 11.8987 6.66359 11.9999 6.37995C12.0884 6.08449 12.5564 6.10813 12.8093 6.11995L14.4913 6.06085ZM10.5455 13.5301C10.5202 13.601 10.4949 13.6601 10.4696 13.731C11.5699 14.3692 12.6575 15.0074 13.7578 15.6338C14.0487 15.7992 14.4028 15.811 14.7443 15.7756C15.9204 15.622 16.9954 15.1729 18.121 14.8183C15.6296 14.1092 13.1634 13.4474 10.5455 13.5301ZM29.4906 13.6246C26.8474 13.4592 24.3686 14.1092 21.8898 14.8183C22.9268 15.1729 23.9512 15.492 25.0009 15.752C25.4056 15.8465 25.8483 15.8347 26.2403 15.6456C27.3785 15.0783 28.4282 14.3692 29.4906 13.6246ZM12.0252 18.7657C12.9611 19.1202 13.8084 19.6993 14.8834 19.522C15.9837 19.3448 16.9701 18.9666 17.8934 18.3756C18.5004 17.9856 18.6142 17.572 18.2728 16.9693C16.2493 17.6902 14.1878 18.3402 12.0252 18.7657ZM28.0615 18.8129C27.7326 18.5411 27.4165 18.6002 27.1382 18.5411C25.4309 18.1866 23.7868 17.6784 22.1427 17.1111C22.0036 17.0638 21.7507 16.8392 21.6621 17.0874C21.5483 17.4302 21.308 17.7965 21.7886 18.1511C22.7877 18.8838 23.9006 19.3566 25.1527 19.5339C26.2277 19.6757 27.0624 19.1202 28.0615 18.8129ZM19.7398 16.0238C19.196 15.7992 19.1833 16.1774 19.1833 16.5556C19.1707 17.0756 19.2972 17.5602 19.6007 18.0093C19.841 18.352 19.803 18.6238 19.3225 18.6829C19.0948 18.7066 19.0948 18.8011 19.1328 18.9429C19.3225 19.8057 19.5122 20.6684 19.6892 21.543C19.7272 21.7439 19.8536 21.7794 20.0433 21.7794C20.2583 21.7794 20.3216 21.6848 20.3595 21.5075C20.5239 20.6802 20.7136 19.8529 20.878 19.0257C20.9033 18.8957 21.0045 18.742 20.701 18.6947C20.2077 18.6238 20.2457 18.3047 20.448 17.9856C20.6757 17.6193 20.8148 17.2411 20.8527 16.8156C20.878 16.5674 20.916 16.272 20.7516 16.0711C20.5745 15.8465 20.2836 16.0474 20.056 16.0474C19.9675 16.0474 19.8789 16.0356 19.7398 16.0238ZM19.9042 32.0968C19.9675 32.0968 20.018 32.1087 20.0813 32.1087C20.0939 32.0377 20.1192 31.9668 20.1319 31.8959C20.2963 29.9932 20.3469 28.0904 20.4101 26.1876C20.4227 25.9276 20.4607 25.6913 20.018 25.6913C19.5754 25.6913 19.6133 25.9276 19.626 26.1876C19.6766 27.3695 19.7019 28.5395 19.7651 29.7213C19.7904 30.5132 19.8536 31.305 19.9042 32.0968ZM20.0054 15.3029C20.3974 15.2556 20.9286 15.2083 20.9286 14.7947C20.9286 14.3337 20.3974 14.251 19.9801 14.251C19.5754 14.251 19.0822 14.3456 19.0822 14.7828C19.0948 15.2201 19.6007 15.2556 20.0054 15.3029ZM20.6377 12.6674C20.5745 12.3483 20.4354 11.9819 19.9801 12.0173C19.5754 12.041 19.3983 12.3837 19.3983 12.7383C19.3983 13.1164 19.5754 13.4828 20.018 13.471C20.448 13.471 20.6124 13.1165 20.6377 12.6674ZM20.4733 24.5685C20.5239 24.2376 20.3595 24.1194 20.0054 24.1194C19.7019 24.1194 19.5248 24.1785 19.5375 24.5094C19.5375 24.8049 19.5754 25.0058 19.9801 24.994C20.2963 24.9703 20.5239 24.9349 20.4733 24.5685ZM20.3974 23.0203C20.3974 22.7485 20.3974 22.4885 19.9801 22.5121C19.6007 22.5239 19.6386 22.7603 19.6007 22.9966C19.5627 23.3039 19.7019 23.4103 20.018 23.3985C20.3342 23.3867 20.4354 23.2685 20.3974 23.0203Z" fill="#02E602"/>
<circle cx="20" cy="20" r="19" stroke="#02E602" stroke-width="2"/>
</svg>
