<svg width="946" height="117" viewBox="0 0 946 117" fill="none" xmlns="http://www.w3.org/2000/svg">
<path d="M876 15C874.897 15 874 15.8973 874 17C874 18.1027 874.897 19 876 19C877.103 19 878 18.1027 878 17C878 15.8973 877.103 15 876 15ZM876 17.6667C875.632 17.6667 875.333 17.3673 875.333 17C875.333 16.6327 875.632 16.3333 876 16.3333C876.368 16.3333 876.667 16.6327 876.667 17C876.667 17.3673 876.368 17.6667 876 17.6667Z" fill="#02E602"/>
<path d="M934 19C935.103 19 936 18.1027 936 17C936 15.8973 935.103 15 934 15C932.897 15 932 15.8973 932 17C932 18.1027 932.897 19 934 19ZM934 16.3333C934.368 16.3333 934.667 16.6327 934.667 17C934.667 17.3673 934.368 17.6667 934 17.6667C933.632 17.6667 933.333 17.3673 933.333 17C933.333 16.6327 933.632 16.3333 934 16.3333Z" fill="#02E602"/>
<path d="M878 67C878 65.8973 877.103 65 876 65C874.897 65 874 65.8973 874 67C874 68.1027 874.897 69 876 69C877.103 69 878 68.1027 878 67ZM875.333 67C875.333 66.6327 875.632 66.3333 876 66.3333C876.368 66.3333 876.667 66.6327 876.667 67C876.667 67.3673 876.368 67.6667 876 67.6667C875.632 67.6667 875.333 67.3673 875.333 67Z" fill="#02E602"/>
<path d="M934 65C932.897 65 932 65.8973 932 67C932 68.1027 932.897 69 934 69C935.103 69 936 68.1027 936 67C936 65.8973 935.103 65 934 65ZM934 67.6667C933.632 67.6667 933.333 67.3673 933.333 67C933.333 66.6327 933.632 66.3333 934 66.3333C934.368 66.3333 934.667 66.6327 934.667 67C934.667 67.3673 934.368 67.6667 934 67.6667Z" fill="#02E602"/>
<path d="M918.35 33.7358L932.703 20.8709C933.196 21.0544 933.727 21.1598 934.284 21.1598C934.297 21.1598 934.309 21.1578 934.321 21.1578L942.281 31.3847C942.801 31.9534 943.489 32.2547 944.14 32.2547C944.54 32.2547 944.926 32.1409 945.251 31.9053C945.621 31.6365 946.718 30.5615 945.278 28.0191L942.676 23.464C941.97 22.0519 941.231 20.6626 940.617 20.0731L938.595 18.0512C938.746 17.5983 938.832 17.1155 938.832 16.6118C938.832 14.1046 936.792 12.0645 934.284 12.0645C934.058 12.0645 933.837 12.0866 933.62 12.1185L925.644 1.87083C924.803 0.953301 923.526 0.729449 922.673 1.3496C922.303 1.61835 921.206 2.69335 922.646 5.23576L925.246 9.78697C925.918 11.1327 926.69 12.5897 927.307 13.1818L929.827 15.7015C929.767 15.9962 929.736 16.3014 929.736 16.6131C929.736 16.6704 929.742 16.7257 929.744 16.7817L918.291 23.7204C917.302 20.2429 914.438 17.5469 910.858 16.8175V16.6209C910.858 16.578 910.854 16.5357 910.845 16.4934C910.554 15.0358 909.22 14.018 907.604 14.018H902.396C900.779 14.018 899.446 15.0358 899.155 16.4934C899.146 16.5357 899.142 16.578 899.142 16.6209V16.8175C895.567 17.5463 892.705 20.2377 891.713 23.723L880.868 17.1519C880.887 16.9801 880.9 16.8064 880.9 16.6287C880.9 16.1316 880.817 15.654 880.668 15.2056L882.684 13.1909C883.31 12.5897 884.082 11.1327 884.751 9.79022L887.356 5.23315C888.794 2.69335 887.698 1.61835 887.327 1.3496C886.473 0.728148 885.196 0.953301 884.323 1.91053L876.408 12.0847C876.389 12.0847 876.371 12.0821 876.351 12.0821C873.843 12.0821 871.803 14.1221 871.803 16.6294C871.803 16.9483 871.837 17.2587 871.9 17.5593L869.393 20.0653C868.769 20.6639 868.03 22.0539 867.326 23.466L864.721 28.023C863.282 30.5628 864.379 31.6378 864.749 31.9066C865.071 32.1402 865.453 32.2541 865.85 32.2541C866.508 32.2541 867.209 31.9424 867.753 31.3457L875.705 21.1253C875.917 21.1552 876.131 21.1761 876.351 21.1761C876.739 21.1761 877.114 21.122 877.474 21.0303L891.65 33.7358L892.342 49.6429L877.474 62.9686C877.114 62.8768 876.739 62.8228 876.351 62.8228C876.131 62.8228 875.916 62.8436 875.704 62.8742L867.72 52.6141C866.88 51.696 865.603 51.4734 864.749 52.0929C864.379 52.3617 863.282 53.4367 864.722 55.9791L867.324 60.5329C868.029 61.945 868.768 63.3349 869.383 63.9251L871.9 66.4409C871.837 66.7408 871.803 67.0519 871.803 67.3708C871.803 69.878 873.844 71.9181 876.351 71.9181C876.37 71.9181 876.389 71.9155 876.408 71.9155L884.357 82.1293C884.877 82.6981 885.565 83 886.217 83C886.616 83 887.002 82.8861 887.327 82.6506C887.698 82.3811 888.794 81.3068 887.355 78.7644L884.754 74.2132C884.082 72.8675 883.31 71.4105 882.693 70.8183L880.668 68.7939C880.817 68.3456 880.9 67.8679 880.9 67.3708C880.9 67.1937 880.887 67.02 880.868 66.8476L893.355 59.2809C894.436 61.3808 896.621 62.8228 899.142 62.8228H910.858C913.381 62.8228 915.569 61.3769 916.649 59.2828L929.118 66.8378C929.098 67.0128 929.084 67.1892 929.084 67.3695C929.084 67.8712 929.169 68.3527 929.32 68.8043L927.316 70.8073C926.689 71.4085 925.918 72.8655 925.249 74.208L922.644 78.765C921.205 81.3048 922.302 82.3799 922.672 82.6486C922.994 82.8822 923.376 82.9961 923.773 82.9961C924.431 82.9961 925.132 82.6844 925.676 82.0877L933.592 71.9142C933.605 71.9142 933.618 71.9161 933.632 71.9161C936.141 71.9161 938.181 69.8761 938.181 67.3688C938.181 66.8703 938.097 66.3914 937.948 65.9424L939.949 63.9421C940.573 63.3434 941.312 61.9534 942.016 60.5413L944.621 55.9843C946.06 53.4445 944.963 52.3695 944.593 52.1007C943.739 51.4793 942.462 51.7044 941.589 52.6616L933.682 62.8247C933.665 62.8247 933.649 62.8221 933.633 62.8221C933.249 62.8221 932.878 62.8749 932.522 62.9647L917.658 49.6436L918.35 33.7358ZM939.706 21.0036C940.254 21.5294 941.167 23.3579 941.511 24.0464C941.516 24.0575 941.537 24.1004 941.544 24.1108L944.146 28.664C944.821 29.8561 944.804 30.6227 944.485 30.8537C944.214 31.0502 943.65 30.9559 943.273 30.5472L935.772 20.9053C936.663 20.5956 937.426 20.0184 937.968 19.2681L939.706 21.0036ZM937.53 16.6131C937.53 18.4026 936.074 19.859 934.284 19.859C932.493 19.859 931.037 18.4033 931.037 16.6131C931.037 14.823 932.493 13.3673 934.283 13.3673C936.074 13.3673 937.53 14.823 937.53 16.6131ZM928.218 12.2519C927.669 11.7255 926.755 9.89499 926.411 9.20586C926.405 9.1948 926.386 9.15576 926.379 9.14535L923.777 4.59219C923.102 3.40005 923.12 2.63349 923.438 2.40248C923.705 2.20596 924.271 2.29901 924.649 2.70897L932.291 12.5311C931.469 12.9339 930.785 13.5749 930.333 14.3668L928.218 12.2519ZM930.006 18.1443C930.301 18.9649 930.824 19.6755 931.5 20.2013L918.428 31.9164L918.669 26.3819C918.669 25.9368 918.629 25.5021 918.571 25.0726L930.006 18.1443ZM902.396 15.3195H907.604C908.411 15.3195 909.306 15.7346 909.543 16.6535C909.332 16.6392 909.121 16.6209 908.905 16.6209H901.094C900.879 16.6209 900.668 16.6392 900.456 16.6535C900.694 15.7346 901.588 15.3195 902.396 15.3195ZM885.317 2.74867C885.728 2.29966 886.293 2.20661 886.562 2.40248C886.879 2.63284 886.898 3.40005 886.224 4.58958L883.62 9.1447C883.614 9.15511 883.594 9.19415 883.588 9.20521C883.245 9.89434 882.33 11.7255 881.772 12.261L880.046 13.9868C879.506 13.2345 878.744 12.6547 877.855 12.3424L885.317 2.74867ZM866.759 30.5069C866.347 30.9559 865.782 31.0489 865.514 30.8531C865.197 30.6227 865.178 29.8555 865.852 28.666L868.456 24.1108C868.462 24.1004 868.484 24.0575 868.489 24.0464C868.833 23.3579 869.747 21.5294 870.304 20.9945L872.41 18.8887C872.865 19.6787 873.55 20.3177 874.373 20.7173L866.759 30.5069ZM873.105 16.6287C873.105 14.8392 874.561 13.3829 876.351 13.3829C878.141 13.3829 879.598 14.8386 879.598 16.6287C879.598 18.4189 878.141 19.8746 876.351 19.8746C874.561 19.8746 873.105 18.4189 873.105 16.6287ZM878.79 20.4609C879.544 19.9794 880.148 19.2844 880.512 18.4586L891.432 25.0752C891.372 25.5132 891.33 25.9563 891.331 26.4105L891.571 31.9164L878.79 20.4609ZM870.294 62.9952C869.746 62.4688 868.833 60.6396 868.488 59.9511C868.483 59.9401 868.462 59.8984 868.456 59.888L865.853 55.3348C865.178 54.1427 865.197 53.3761 865.514 53.1451C865.782 52.9499 866.347 53.0423 866.726 53.4523L874.373 63.2816C873.549 63.6818 872.864 64.3201 872.409 65.1101L870.294 62.9952ZM873.105 67.3701C873.105 65.5806 874.561 64.1243 876.351 64.1243C878.141 64.1243 879.598 65.5799 879.598 67.3701C879.598 69.1603 878.141 70.6159 876.351 70.6159C874.561 70.6159 873.105 69.1596 873.105 67.3701ZM881.782 71.7469C882.331 72.2734 883.245 74.1039 883.588 74.793C883.594 74.804 883.614 74.8431 883.62 74.8535L886.223 79.4067C886.898 80.5988 886.879 81.3654 886.562 81.5964C886.293 81.7909 885.729 81.6992 885.35 81.2899L877.856 71.6565C878.745 71.3435 879.507 70.7643 880.047 70.0121L881.782 71.7469ZM880.512 65.5402C880.148 64.7145 879.544 64.0195 878.79 63.5379L892.415 51.3257L892.632 56.3155C892.632 56.9168 892.721 57.4972 892.874 58.0503L880.512 65.5402ZM899.935 61.5213L900.423 59.0765C900.635 58.2306 901.465 57.617 902.396 57.617H907.604C908.535 57.617 909.364 58.2306 909.569 59.046L910.064 61.5213H899.935ZM911.386 61.4947L910.838 58.7603C910.485 57.3437 909.123 56.3155 907.604 56.3155H902.396C900.876 56.3155 899.515 57.3436 899.155 58.7909L898.614 61.4947C895.99 61.2292 893.934 59.0063 893.934 56.2875L892.938 33.3994C892.938 33.3987 892.938 33.3974 892.938 33.3968L892.632 26.3819C892.632 25.8535 892.687 25.3375 892.781 24.8358C892.781 24.8351 892.781 24.8351 892.781 24.8345C893.511 20.9073 896.958 17.9224 901.094 17.9224H908.905C913.043 17.9224 916.49 20.9086 917.22 24.8169C917.221 24.8293 917.223 24.8403 917.225 24.8527C917.314 25.3407 917.367 25.8411 917.367 26.3539L916.066 56.3155C916.066 59.0076 914.011 61.2292 911.386 61.4947ZM924.683 81.2502C924.271 81.6992 923.705 81.7916 923.438 81.5964C923.12 81.366 923.101 80.5988 923.776 79.4093L926.379 74.8541C926.386 74.8437 926.405 74.8047 926.411 74.7936C926.755 74.1045 927.669 72.2734 928.227 71.7378L929.944 70.0212C930.487 70.7728 931.25 71.3506 932.141 71.661L924.683 81.2502ZM933.632 70.6159C931.842 70.6159 930.386 69.1603 930.386 67.3701C930.386 65.5799 931.842 64.1243 933.632 64.1243C935.423 64.1243 936.879 65.5799 936.879 67.3701C936.879 69.1603 935.423 70.6159 933.632 70.6159ZM942.582 53.5011C942.994 53.0514 943.559 52.959 943.827 53.1549C944.145 53.3853 944.164 54.1525 943.49 55.342L940.886 59.8971C940.879 59.9075 940.858 59.9505 940.853 59.9615C940.509 60.65 939.595 62.4786 939.038 63.0135L937.325 64.7255C936.784 63.9726 936.021 63.3935 935.13 63.0811L942.582 53.5011ZM931.203 63.5321C930.447 64.0123 929.842 64.7073 929.475 65.5331L917.128 58.0523C917.279 57.5063 917.367 56.9356 917.367 56.3441L917.585 51.3263L931.203 63.5321Z" fill="#02E602"/>
<path d="M910.786 22H899.214C897.442 22 896 23.4953 896 25.3333V30.6667C896 32.5047 897.442 34 899.214 34H910.786C912.558 34 914 32.5047 914 30.6667V25.3333C914 23.4953 912.558 22 910.786 22ZM912.714 30.6667C912.714 31.7693 911.849 32.6667 910.786 32.6667H899.214C898.151 32.6667 897.286 31.7693 897.286 30.6667V25.3333C897.286 24.2307 898.151 23.3333 899.214 23.3333H910.786C911.849 23.3333 912.714 24.2307 912.714 25.3333V30.6667Z" fill="#02E602"/>
<g clip-path="url(#clip0_58_33)">
<path d="M0 48.3005C46.0413 37.6991 93.5424 33.0751 140.707 34.4284C176.641 35.4435 236.495 33.8645 265.243 59.5787C280.178 72.9996 288.376 99.7288 267.264 111.909C236.495 129.616 213.25 85.18 245.816 67.4734C255.361 62.2854 266.478 60.8193 277.258 59.8042C329.364 54.8419 379.897 60.932 431.89 64.3155C510.722 69.5034 588.992 70.5185 667.374 59.3531C725.207 51.0073 781.916 46.2705 832 13" stroke="#02E602" stroke-width="2" stroke-miterlimit="10" stroke-dasharray="12 12"/>
</g>
<defs>
<clipPath id="clip0_58_33">
<rect width="833" height="104" fill="white" transform="translate(0 13)"/>
</clipPath>
</defs>
</svg>
