<svg width="949" height="118" viewBox="0 0 949 118" fill="none" xmlns="http://www.w3.org/2000/svg">
<g clip-path="url(#clip0_121_748)">
<path d="M878.999 15C877.896 15 876.999 15.8973 876.999 17C876.999 18.1027 877.896 19 878.999 19C880.102 19 880.999 18.1027 880.999 17C880.999 15.8973 880.102 15 878.999 15ZM878.999 17.6667C878.631 17.6667 878.332 17.3673 878.332 17C878.332 16.6327 878.631 16.3333 878.999 16.3333C879.367 16.3333 879.666 16.6327 879.666 17C879.666 17.3673 879.367 17.6667 878.999 17.6667Z" fill="#464646"/>
<path d="M936.999 19C938.102 19 938.999 18.1027 938.999 17C938.999 15.8973 938.102 15 936.999 15C935.896 15 934.999 15.8973 934.999 17C934.999 18.1027 935.896 19 936.999 19ZM936.999 16.3333C937.367 16.3333 937.666 16.6327 937.666 17C937.666 17.3673 937.367 17.6667 936.999 17.6667C936.631 17.6667 936.332 17.3673 936.332 17C936.332 16.6327 936.631 16.3333 936.999 16.3333Z" fill="#464646"/>
<path d="M880.999 67C880.999 65.8973 880.102 65 878.999 65C877.896 65 876.999 65.8973 876.999 67C876.999 68.1027 877.896 69 878.999 69C880.102 69 880.999 68.1027 880.999 67ZM878.332 67C878.332 66.6327 878.631 66.3333 878.999 66.3333C879.367 66.3333 879.666 66.6327 879.666 67C879.666 67.3673 879.367 67.6667 878.999 67.6667C878.631 67.6667 878.332 67.3673 878.332 67Z" fill="#464646"/>
<path d="M936.999 65C935.896 65 934.999 65.8973 934.999 67C934.999 68.1027 935.896 69 936.999 69C938.102 69 938.999 68.1027 938.999 67C938.999 65.8973 938.102 65 936.999 65ZM936.999 67.6667C936.631 67.6667 936.332 67.3673 936.332 67C936.332 66.6327 936.631 66.3333 936.999 66.3333C937.367 66.3333 937.666 66.6327 937.666 67C937.666 67.3673 937.367 67.6667 936.999 67.6667Z" fill="#464646"/>
<path d="M921.349 33.7358L935.702 20.8709C936.196 21.0544 936.726 21.1598 937.283 21.1598C937.296 21.1598 937.308 21.1578 937.32 21.1578L945.28 31.3847C945.8 31.9534 946.488 32.2547 947.139 32.2547C947.539 32.2547 947.925 32.1409 948.25 31.9053C948.62 31.6365 949.717 30.5615 948.277 28.0191L945.675 23.464C944.969 22.0519 944.23 20.6626 943.616 20.0731L941.594 18.0512C941.745 17.5983 941.831 17.1155 941.831 16.6118C941.831 14.1046 939.791 12.0645 937.283 12.0645C937.057 12.0645 936.836 12.0866 936.619 12.1185L928.643 1.87083C927.803 0.953301 926.525 0.729449 925.672 1.3496C925.302 1.61835 924.205 2.69335 925.645 5.23576L928.245 9.78697C928.917 11.1327 929.689 12.5897 930.306 13.1818L932.826 15.7015C932.766 15.9962 932.735 16.3014 932.735 16.6131C932.735 16.6704 932.741 16.7257 932.743 16.7817L921.29 23.7204C920.301 20.2429 917.437 17.5469 913.857 16.8175V16.6209C913.857 16.578 913.853 16.5357 913.844 16.4934C913.553 15.0358 912.219 14.018 910.603 14.018H905.395C903.778 14.018 902.445 15.0358 902.154 16.4934C902.145 16.5357 902.141 16.578 902.141 16.6209V16.8175C898.566 17.5463 895.704 20.2377 894.712 23.723L883.867 17.1519C883.886 16.9801 883.899 16.8064 883.899 16.6287C883.899 16.1316 883.816 15.654 883.667 15.2056L885.683 13.1909C886.309 12.5897 887.081 11.1327 887.75 9.79022L890.355 5.23315C891.794 2.69335 890.697 1.61835 890.326 1.3496C889.472 0.728148 888.195 0.953301 887.322 1.91052L879.407 12.0847C879.388 12.0847 879.37 12.0821 879.35 12.0821C876.842 12.0821 874.802 14.1221 874.802 16.6294C874.802 16.9483 874.836 17.2587 874.899 17.5593L872.392 20.0653C871.768 20.6639 871.029 22.0539 870.325 23.466L867.72 28.023C866.281 30.5628 867.378 31.6378 867.748 31.9066C868.07 32.1402 868.452 32.2541 868.849 32.2541C869.507 32.2541 870.208 31.9424 870.752 31.3457L878.704 21.1253C878.916 21.1552 879.13 21.176 879.35 21.176C879.738 21.176 880.113 21.122 880.473 21.0303L894.649 33.7358L895.341 49.6429L880.473 62.9686C880.113 62.8768 879.738 62.8228 879.35 62.8228C879.13 62.8228 878.915 62.8436 878.703 62.8742L870.719 52.6141C869.879 51.6959 868.602 51.4734 867.748 52.0929C867.378 52.3617 866.281 53.4367 867.721 55.9791L870.323 60.5329C871.028 61.945 871.767 63.3349 872.382 63.9251L874.899 66.4408C874.836 66.7408 874.802 67.0519 874.802 67.3707C874.802 69.878 876.843 71.918 879.35 71.918C879.369 71.918 879.388 71.9154 879.407 71.9154L887.356 82.1293C887.876 82.6981 888.564 83 889.216 83C889.616 83 890.002 82.8861 890.326 82.6505C890.697 82.3811 891.794 81.3068 890.354 78.7644L887.753 74.2132C887.081 72.8675 886.309 71.4105 885.692 70.8183L883.667 68.7939C883.816 68.3455 883.899 67.8679 883.899 67.3707C883.899 67.1937 883.886 67.02 883.867 66.8476L896.354 59.2809C897.435 61.3808 899.62 62.8228 902.141 62.8228H913.857C916.38 62.8228 918.568 61.3769 919.648 59.2828L932.117 66.8378C932.097 67.0128 932.083 67.1892 932.083 67.3694C932.083 67.8712 932.168 68.3527 932.319 68.8043L930.315 70.8073C929.688 71.4085 928.917 72.8655 928.248 74.208L925.643 78.765C924.204 81.3048 925.301 82.3798 925.671 82.6486C925.993 82.8822 926.375 82.9961 926.772 82.9961C927.43 82.9961 928.131 82.6844 928.675 82.0877L936.591 71.9141C936.604 71.9141 936.617 71.9161 936.631 71.9161C939.14 71.9161 941.18 69.8761 941.18 67.3688C941.18 66.8703 941.096 66.3914 940.947 65.9424L942.948 63.942C943.572 63.3434 944.311 61.9534 945.016 60.5413L947.62 55.9843C949.059 53.4445 947.962 52.3695 947.592 52.1007C946.738 51.4793 945.461 51.7044 944.588 52.6616L936.681 62.8247C936.664 62.8247 936.648 62.8221 936.632 62.8221C936.248 62.8221 935.877 62.8749 935.521 62.9647L920.657 49.6436L921.349 33.7358ZM942.705 21.0036C943.253 21.5294 944.166 23.3579 944.51 24.0464C944.515 24.0575 944.536 24.1004 944.543 24.1108L947.145 28.664C947.82 29.8561 947.803 30.6227 947.484 30.8537C947.213 31.0502 946.649 30.9559 946.272 30.5472L938.771 20.9053C939.662 20.5956 940.425 20.0184 940.967 19.2681L942.705 21.0036ZM940.529 16.6131C940.529 18.4026 939.073 19.859 937.283 19.859C935.493 19.859 934.036 18.4033 934.036 16.6131C934.036 14.823 935.492 13.3673 937.282 13.3673C939.073 13.3673 940.529 14.823 940.529 16.6131ZM931.217 12.2519C930.668 11.7255 929.754 9.89499 929.41 9.20586C929.404 9.1948 929.385 9.15576 929.378 9.14535L926.776 4.59218C926.101 3.40005 926.119 2.63349 926.437 2.40248C926.704 2.20596 927.27 2.29901 927.648 2.70897L935.29 12.5311C934.468 12.9339 933.784 13.5749 933.332 14.3668L931.217 12.2519ZM933.005 18.1443C933.3 18.9649 933.823 19.6755 934.499 20.2013L921.427 31.9164L921.668 26.3819C921.668 25.9368 921.628 25.5021 921.57 25.0726L933.005 18.1443ZM905.395 15.3195H910.603C911.41 15.3195 912.305 15.7346 912.542 16.6535C912.331 16.6392 912.12 16.6209 911.904 16.6209H904.093C903.878 16.6209 903.667 16.6392 903.455 16.6535C903.693 15.7346 904.587 15.3195 905.395 15.3195ZM888.316 2.74867C888.727 2.29966 889.292 2.20661 889.561 2.40248C889.878 2.63284 889.897 3.40005 889.223 4.58958L886.619 9.14469C886.613 9.15511 886.593 9.19415 886.587 9.20521C886.244 9.89434 885.329 11.7255 884.771 12.261L883.045 13.9868C882.505 13.2345 881.743 12.6547 880.854 12.3424L888.316 2.74867ZM869.758 30.5069C869.346 30.9559 868.781 31.0489 868.513 30.8531C868.196 30.6227 868.177 29.8555 868.851 28.666L871.455 24.1108C871.461 24.1004 871.483 24.0575 871.488 24.0464C871.832 23.3579 872.746 21.5294 873.303 20.9945L875.409 18.8887C875.864 19.6787 876.549 20.3177 877.372 20.7173L869.758 30.5069ZM876.104 16.6287C876.104 14.8392 877.56 13.3829 879.35 13.3829C881.141 13.3829 882.597 14.8386 882.597 16.6287C882.597 18.4189 881.141 19.8746 879.35 19.8746C877.56 19.8746 876.104 18.4189 876.104 16.6287ZM881.789 20.4609C882.543 19.9794 883.147 19.2844 883.511 18.4586L894.431 25.0752C894.371 25.5132 894.329 25.9563 894.33 26.4105L894.57 31.9164L881.789 20.4609ZM873.293 62.9952C872.745 62.4688 871.832 60.6396 871.487 59.9511C871.482 59.9401 871.461 59.8984 871.455 59.888L868.852 55.3348C868.177 54.1427 868.196 53.3761 868.513 53.1451C868.781 52.9499 869.346 53.0423 869.725 53.4523L877.372 63.2816C876.548 63.6818 875.863 64.3201 875.408 65.1101L873.293 62.9952ZM876.104 67.3701C876.104 65.5806 877.56 64.1243 879.35 64.1243C881.141 64.1243 882.597 65.5799 882.597 67.3701C882.597 69.1603 881.141 70.6159 879.35 70.6159C877.56 70.6159 876.104 69.1596 876.104 67.3701ZM884.781 71.7469C885.33 72.2733 886.244 74.1039 886.587 74.793C886.593 74.804 886.613 74.8431 886.619 74.8535L889.222 79.4067C889.897 80.5988 889.878 81.3653 889.561 81.5964C889.292 81.7909 888.728 81.6992 888.349 81.2899L880.855 71.6565C881.744 71.3435 882.506 70.7643 883.046 70.0121L884.781 71.7469ZM883.511 65.5402C883.147 64.7145 882.543 64.0195 881.789 63.5379L895.414 51.3257L895.631 56.3155C895.631 56.9168 895.72 57.4972 895.873 58.0503L883.511 65.5402ZM902.934 61.5213L903.422 59.0765C903.634 58.2306 904.464 57.6169 905.395 57.6169H910.603C911.534 57.6169 912.363 58.2306 912.568 59.046L913.063 61.5213H902.934ZM914.385 61.4947L913.837 58.7603C913.484 57.3436 912.122 56.3155 910.603 56.3155H905.395C903.875 56.3155 902.514 57.3436 902.154 58.7909L901.613 61.4947C898.989 61.2292 896.933 59.0063 896.933 56.2875L895.937 33.3994C895.937 33.3987 895.937 33.3974 895.937 33.3968L895.631 26.3819C895.631 25.8535 895.686 25.3375 895.78 24.8358C895.78 24.8351 895.78 24.8351 895.78 24.8345C896.51 20.9073 899.957 17.9224 904.093 17.9224H911.904C916.042 17.9224 919.489 20.9086 920.219 24.8169C920.22 24.8292 920.222 24.8403 920.224 24.8527C920.313 25.3407 920.366 25.8411 920.366 26.3539L919.065 56.3155C919.065 59.0076 917.01 61.2292 914.385 61.4947ZM927.682 81.2502C927.27 81.6992 926.704 81.7916 926.437 81.5964C926.119 81.366 926.1 80.5988 926.775 79.4093L929.378 74.8541C929.385 74.8437 929.404 74.8047 929.41 74.7936C929.754 74.1045 930.669 72.2733 931.226 71.7378L932.944 70.0212C933.486 70.7728 934.249 71.3506 935.14 71.661L927.682 81.2502ZM936.631 70.6159C934.841 70.6159 933.385 69.1603 933.385 67.3701C933.385 65.5799 934.841 64.1243 936.631 64.1243C938.422 64.1243 939.878 65.5799 939.878 67.3701C939.878 69.1603 938.422 70.6159 936.631 70.6159ZM945.581 53.5011C945.993 53.0514 946.558 52.959 946.826 53.1549C947.144 53.3852 947.163 54.1525 946.489 55.342L943.885 59.8971C943.878 59.9075 943.857 59.9505 943.852 59.9615C943.508 60.65 942.594 62.4786 942.037 63.0135L940.324 64.7255C939.783 63.9726 939.02 63.3935 938.129 63.0811L945.581 53.5011ZM934.202 63.5321C933.446 64.0123 932.841 64.7073 932.474 65.5331L920.127 58.0523C920.279 57.5063 920.366 56.9356 920.366 56.3441L920.584 51.3263L934.202 63.5321Z" fill="#464646"/>
<path d="M913.785 22H902.213C900.441 22 898.999 23.4953 898.999 25.3333V30.6667C898.999 32.5047 900.441 34 902.213 34H913.785C915.557 34 916.999 32.5047 916.999 30.6667V25.3333C916.999 23.4953 915.557 22 913.785 22ZM915.713 30.6667C915.713 31.7693 914.848 32.6667 913.785 32.6667H902.213C901.15 32.6667 900.285 31.7693 900.285 30.6667V25.3333C900.285 24.2307 901.15 23.3333 902.213 23.3333H913.785C914.848 23.3333 915.713 24.2307 915.713 25.3333V30.6667Z" fill="#464646"/>
</g>
<path d="M833 39.3005C786.959 28.6991 739.458 24.0751 692.293 25.4284C656.359 26.4435 596.505 24.8645 567.757 50.5787C552.822 63.9996 544.624 90.7288 565.736 102.909C596.505 120.616 619.75 76.18 587.184 58.4734C577.639 53.2854 566.522 51.8193 555.742 50.8042C503.636 45.8419 453.103 51.932 401.11 55.3155C322.278 60.5034 244.008 61.5185 165.626 50.3531C107.793 42.0073 51.0839 37.2705 0.99999 4" stroke="#464646" stroke-width="2" stroke-miterlimit="10" stroke-dasharray="12 12"/>
<defs>
<clipPath id="clip0_121_748">
<rect width="83" height="83" fill="white" transform="translate(865.999)"/>
</clipPath>
</defs>
</svg>
