<svg width="40" height="40" viewBox="0 0 40 40" fill="none" xmlns="http://www.w3.org/2000/svg">
<path d="M23.943 0.0238536C24.0543 0.417414 24.252 0.810973 24.2644 1.20453C24.2767 2.14669 24.3262 3.10078 24.1161 4.00716C23.9059 4.91354 23.4115 5.74836 23.0283 6.63089C25.1914 7.10793 25.4139 9.55277 24.4251 10.96C24.2891 11.1509 24.3262 11.449 24.2644 11.9022C24.8948 11.5086 25.3398 11.294 25.6982 10.9839C25.9084 10.805 26.0938 10.483 26.1185 10.2087C26.168 9.36196 26.1061 8.51521 26.1556 7.68038C26.168 7.41801 26.3163 7.10793 26.5017 6.92904C27.1692 6.32081 27.8985 5.76029 28.603 5.17591C29.0357 4.81813 29.5054 4.73465 29.9009 5.15206C30.3212 5.60525 30.21 6.10614 29.7032 6.42814C28.2693 7.3226 27.4659 8.4675 27.8367 10.1849C28.0592 11.2463 27.6389 11.9738 26.6129 12.427C26.3163 12.5581 26.0567 12.7728 25.6241 13.0471C27.3422 13.7984 28.6154 15.2773 30.6426 14.9434C32.0641 14.7168 33.0653 15.2296 33.9306 16.3148C34.6352 17.1974 35.5128 17.9487 36.3039 18.7597C36.8848 19.356 36.959 19.8569 36.5387 20.2505C36.1061 20.644 35.5993 20.5486 35.0307 19.9642C34.116 19.0221 33.1766 18.1038 32.2866 17.1377C31.9158 16.7442 31.5449 16.5534 30.964 16.5772C29.6784 16.613 28.3435 16.8277 27.1692 15.9571C27.2928 16.1837 27.404 16.4222 27.54 16.6488C29.1222 19.3202 30.7044 21.9917 32.2742 24.6631C32.8428 25.641 32.9788 26.619 32.1753 27.6327C32.8799 28.0143 33.5721 28.3721 34.252 28.7418C34.4745 28.8611 34.734 28.9803 34.87 29.1711C35.7229 30.3876 36.8725 30.2445 38.1209 29.9702C39.2705 29.7078 39.8885 29.9821 39.9874 30.6858C40.0863 31.3417 39.6042 31.7472 38.4917 31.9261C38.0344 31.9976 37.577 32.0692 37.3298 32.1169C36.9219 33.1425 36.5511 34.037 36.2173 34.9434C36.1679 35.0745 36.2668 35.2654 36.341 35.4085C36.6253 35.9094 36.959 36.3745 37.2433 36.8873C37.54 37.4359 37.3916 37.9129 36.8477 38.223C36.3162 38.5212 35.7476 38.4258 35.5128 37.9129C34.9071 36.5772 33.98 35.9332 32.4102 36.0644C31.854 36.1121 31.2483 35.7424 30.5808 35.5277C30.3336 36.0048 30.074 36.5176 29.7897 37.0066C29.4436 37.6148 28.8626 37.8414 28.3187 37.5909C27.7749 37.3405 27.6018 36.768 27.9232 36.124C28.1704 35.6112 28.4424 35.1103 28.7885 34.4544C26.959 33.8342 25.2038 33.2379 23.325 32.5939C23.2508 33.4287 23.2013 34.0966 23.1272 34.7525C23.0283 35.5754 22.608 35.9809 21.9282 35.8974C21.2978 35.8259 20.9888 35.3488 21.0506 34.5617C21.1 33.9058 21.1618 33.2379 21.2236 32.5224C19.2088 32.427 17.3794 32.7847 15.5005 33.4526C15.7107 34.0489 15.8961 34.6094 16.0938 35.158C16.3658 35.9332 16.1557 36.5057 15.5252 36.6965C14.9072 36.8873 14.4128 36.5891 14.1408 35.8497C13.9431 35.3369 13.77 34.8241 13.5475 34.2278C12.6699 34.6929 11.8912 35.158 11.063 35.5397C10.309 35.8855 9.51787 36.1837 8.71441 36.4222C8.33123 36.5414 8.08401 36.6488 8.0222 37.0781C7.93568 37.7102 7.79971 38.3542 7.60193 38.9624C7.47832 39.3321 7.18166 39.6541 6.95917 40C6.65015 40 6.34112 40 6.0321 40C5.56239 39.4991 5.45114 38.9505 5.66128 38.2946C5.79725 37.8772 5.8096 37.412 5.94557 36.9827C6.11863 36.458 5.99502 36.136 5.48822 35.8259C5.09268 35.5754 4.6106 35.1938 4.53644 34.8002C4.21505 33.3333 3.15202 33.2856 1.96538 33.3572C1.81705 33.3691 1.65635 33.3453 1.50802 33.3572C0.865259 33.4287 0.358465 33.2022 0 32.6774C0 32.4747 0 32.2838 0 32.0811C0.333743 31.4848 0.840538 31.2821 1.53275 31.3417C2.2744 31.4013 3.02841 31.4132 3.77006 31.4013C4.00492 31.4013 4.28922 31.3178 4.43755 31.1628C4.96907 30.638 5.4635 30.0656 5.99502 29.4812C5.71072 29.0042 5.37698 28.5033 5.09268 27.9905C4.78365 27.4419 4.80838 26.929 5.37698 26.5474C5.88377 26.2135 6.50181 26.3924 6.885 26.9767C7.20638 27.4776 7.51541 27.9785 7.82443 28.4914C8.56608 28.1216 9.23357 27.8116 9.86397 27.4419C10.0247 27.3465 10.1854 27.0364 10.1359 26.8813C9.88869 26.0465 10.1359 25.3071 10.5562 24.6035C11.4956 23.0054 12.4474 21.4192 13.3868 19.8211C14.1532 18.5212 14.9196 17.2093 15.6983 15.8855C14.9814 16.124 14.3386 16.4341 13.6588 16.5414C12.9542 16.6488 12.2125 16.5176 11.508 16.5891C11.1248 16.6249 10.6674 16.7919 10.3955 17.0543C9.41898 17.9726 8.50428 18.9505 7.57721 19.9046C6.99625 20.5009 6.47709 20.6202 6.05683 20.2505C5.58711 19.8569 5.66128 19.3679 6.29168 18.712C7.04569 17.9368 7.91095 17.2332 8.55372 16.3745C9.49314 15.1222 10.6551 14.681 12.1878 14.9195C14.2274 15.2415 15.4758 13.7507 17.194 13.0233C16.7737 12.749 16.5265 12.5104 16.2175 12.3912C15.1791 11.9618 14.7589 11.2343 14.9814 10.161C15.3275 8.4675 14.5982 7.28682 13.1396 6.39237C12.6452 6.09422 12.4845 5.58139 12.9295 5.11628C13.325 4.69887 13.7947 4.78235 14.2274 5.14013C14.9072 5.71258 15.6241 6.24925 16.2669 6.85748C16.4894 7.06023 16.6377 7.42994 16.6624 7.72809C16.7119 8.53906 16.6625 9.36196 16.6872 10.1849C16.6995 10.3995 16.7737 10.6858 16.9344 10.8169C17.3917 11.1628 17.8985 11.449 18.3806 11.7591C18.4424 11.7352 18.5042 11.6995 18.566 11.6756C18.5289 11.4371 18.5537 11.1628 18.4301 10.9839C17.2063 9.19499 17.7008 7.51342 19.8392 6.54741C18.7762 4.90161 18.3559 3.07692 18.5042 1.15683C18.5289 0.763269 18.7267 0.39356 18.8503 0C19.1099 0 19.3695 0 19.6291 0C19.7403 0.369708 19.9628 0.739417 19.9504 1.0972C19.8763 3.02922 20.4696 4.77043 21.4461 6.47585C22.2001 4.83006 23.053 3.25581 22.8305 1.3715C22.7811 0.930233 23.0654 0.465116 23.189 0C23.4362 0.0238521 23.6834 0.0238536 23.943 0.0238536ZM23.3744 15.8617C23.3126 15.8497 23.2384 15.8497 23.1766 15.8378C23.1766 15.1461 23.2013 14.4425 23.1766 13.7507C23.1148 12.1884 22.6946 11.7949 21.1247 11.8068C20.9393 11.8068 20.7539 11.771 20.5932 11.8187C20.4449 11.8545 20.2347 11.9499 20.1977 12.0572C19.9875 12.6655 19.7032 13.2737 19.6661 13.9058C19.3695 18.1276 20.4078 22.2302 20.9393 26.3804C20.964 26.5593 21.2731 26.7859 21.4832 26.8217C21.6068 26.8456 21.8911 26.5593 21.9405 26.3804C22.0765 25.8318 22.1259 25.2594 22.2001 24.6869C22.5709 21.7531 22.9788 18.8074 23.3744 15.8617ZM24.9319 15.5516C24.8824 16.6846 24.8824 17.6506 24.7712 18.5927C24.5858 20.1193 24.3138 21.6339 24.1284 23.1485C24.0913 23.4347 24.2273 23.864 24.4498 24.0191C25.9578 25.0924 27.4906 26.1181 29.0357 27.1437C29.5548 27.4896 30.1111 27.4776 30.5931 27.0483C31.0876 26.607 31.1617 26.0704 30.828 25.4979C28.8997 22.2421 26.9591 18.9863 24.9319 15.5516ZM17.7502 15.8497C17.812 15.8259 17.7502 15.8259 17.7255 15.8617C15.7972 19.1055 13.8689 22.3494 11.953 25.6052C11.6316 26.1538 11.7799 26.6905 12.2496 27.0841C12.7317 27.4776 13.2879 27.5015 13.8194 27.1437C15.3522 26.0942 16.8849 25.0567 18.393 23.9833C18.5784 23.8521 18.7267 23.5301 18.702 23.3274C18.4053 20.811 18.0716 18.3184 17.7502 15.8497ZM13.1396 32.1169C13.0902 31.3655 13.016 30.5546 12.9665 29.7436C12.9047 28.7776 12.4103 28.4675 11.508 28.9207C10.2348 29.5528 8.96163 30.2206 7.72554 30.9243C7.23111 31.2105 6.78611 31.616 6.3782 32.0215C5.94557 32.4508 5.84669 32.9756 6.14335 33.5242C6.44001 34.0847 6.86028 34.5617 7.56485 34.4782C8.26942 34.3948 8.99871 34.2755 9.62912 33.9893C10.8158 33.4407 11.9282 32.7728 13.1396 32.1169ZM15.1173 31.1986C17.1816 30.8766 19.1717 30.5665 21.2607 30.2326C21.2978 29.6482 21.3472 28.9445 21.3967 28.2409C20.5067 27.9428 19.3695 28.062 19.3818 26.774C17.7255 26.7024 16.3163 27.1914 15.0803 28.1574C14.9937 28.229 14.8825 28.3602 14.8948 28.4556C14.9566 29.4097 15.0432 30.3637 15.1173 31.1986ZM28.5165 32.0692C28.5165 31.0912 28.5289 30.0537 28.5042 29.028C28.4918 28.8253 28.3435 28.5391 28.1704 28.4317C26.7613 27.6208 25.2162 27.251 23.5475 26.9529C23.4609 28.0978 23.3497 29.1831 23.3002 30.2683C23.2879 30.4115 23.5104 30.6619 23.6711 30.7096C25.2656 31.1628 26.8972 31.616 28.5165 32.0692ZM30.6055 29.1473C30.6055 30.0298 30.5808 30.7812 30.6055 31.5206C30.6673 33.4526 30.7168 33.5003 32.6451 34.025C33.6463 34.2993 34.1654 34.1682 34.6352 33.5361C35.0925 32.904 35.0307 32.3792 34.4497 31.5564C33.535 30.2803 32.0394 29.8748 30.6055 29.1473ZM21.3967 9.99404C21.8046 9.99404 22.2248 9.98211 22.6327 9.99404C23.1766 10.006 23.2755 9.69589 23.2508 9.26655C23.2384 8.84914 23.3126 8.37209 22.6451 8.36017C21.8169 8.34824 21.0011 8.32439 20.1729 8.38402C19.9504 8.39595 19.6291 8.67024 19.5796 8.87299C19.3695 9.71974 19.6291 9.98211 20.5438 9.99404C20.8281 9.99404 21.1124 9.99404 21.3967 9.99404Z" fill="#02E602"/>
</svg>
