<svg width="658" height="541" viewBox="0 0 658 541" fill="none" xmlns="http://www.w3.org/2000/svg">
<g clip-path="url(#clip0_16_60)">
<path d="M465.846 260.358C467.255 228.186 442.626 198.17 419.165 205.771C395.705 213.372 376.81 236.005 374.444 258.002C372.078 279.999 411.519 267.61 429.144 275.277C446.817 283.051 465.144 275.538 465.846 260.358Z" stroke="#F2F1F1" stroke-opacity="0.05" stroke-miterlimit="10"/>
<path d="M368.364 201.769C346.148 211.014 347.658 233.345 333.33 252C324.955 262.966 326 268.962 328.354 274.634C332.193 283.651 349.623 289.46 356.382 291.231C376.939 296.811 409.926 294.013 427.305 305.531C458.095 325.809 477.643 287.254 485.451 267.366C495.493 241.96 489.521 223.037 473.622 212.67C437.959 189.78 437.938 172.99 368.364 201.769Z" stroke="#F2F1F1" stroke-opacity="0.05" stroke-miterlimit="10"/>
<path d="M437.768 173.143C425.839 158.23 395.523 174.839 343.844 183.588C304.758 190.231 314.715 233.374 290.295 262.914C265.174 293.415 284.001 297.737 311.318 306.317C341.883 316.043 399.872 313.171 428.62 335.503C471.833 369.026 494.105 298.699 508.131 274.045C528.411 238.44 516.819 218.841 496.754 204.828C476.093 190.563 446.144 183.674 437.768 173.143Z" stroke="#F2F1F1" stroke-opacity="0.05" stroke-miterlimit="10"/>
<path d="M449.739 155.686C437.95 130.566 394.509 154.969 320.04 164.764C264.775 171.978 282.201 232.745 247.559 273.346C210.836 316.172 238.538 322.916 281.783 329.748C326.078 336.762 395.889 335.4 430.682 364.684C486.398 411.647 511.819 309.481 532.094 279.819C563.339 234.111 547.62 211.78 521.34 196.226C494.964 180.455 457.595 172.305 449.739 155.686Z" stroke="#F2F1F1" stroke-opacity="0.05" stroke-miterlimit="10"/>
<path d="M556.189 285.477C598.258 230.016 578.287 204.644 546.115 187.43C513.807 170.276 469.251 161.172 461.918 138.09C450.568 103.039 393.57 135.035 296.624 145.751C225.229 153.658 250.264 231.935 205.463 283.42C157.665 338.705 194.28 348.101 252.856 352.78C311.566 357.4 392.42 357.353 433.189 393.582C501.168 454.037 529.918 320.145 556.189 285.477Z" stroke="#F2F1F1" stroke-opacity="0.05" stroke-miterlimit="10"/>
<path d="M265.827 134.791C194.818 154.715 197.661 228.402 155.943 283.088C114.139 337.942 142.082 355.118 192.753 373.347C221.34 383.611 266.833 378.165 311.142 378.052C360.127 377.936 402.417 387.815 426.166 427.902C472.626 506.461 554.807 336.074 578.041 292.086C610.599 230.567 587.648 200.646 552.623 178.049C517.463 155.513 471.786 140.907 463.596 111.169C451.46 67.0801 371.148 105.306 265.827 134.791Z" stroke="#F2F1F1" stroke-opacity="0.05" stroke-miterlimit="10"/>
<path d="M236.181 123.783C165.516 154.596 145.98 224.702 107.621 282.545C71.5807 336.89 90.2106 365.077 133.992 393.62C164.395 413.449 224.153 400.215 282.901 395.609C344.775 390.781 397.944 399.045 420.334 461.519C452.736 552.382 581.48 351.864 601.15 298.056C625.62 231.077 598.421 195.93 560.468 168.168C522.515 140.406 475.809 120.176 466.913 83.7606C453.708 31.0883 350.35 73.9904 236.181 123.783Z" stroke="#F2F1F1" stroke-opacity="0.05" stroke-miterlimit="10"/>
<path d="M210.167 116.171C139.551 157.215 97.5756 224.308 62.6201 285.42C31.9247 339.056 40.287 379.714 78.3797 417.257C109.262 447.63 184.665 425.737 257.847 416.643C332.519 407.274 399.537 412.993 417.732 498.716C439.523 601.265 612.324 371.2 627.482 307.612C644.823 235.136 612.288 194.859 571.541 161.871C530.746 128.775 482.922 103.091 473.32 60.0002C459.584 -1.49436 332.391 45.0135 210.167 116.171Z" stroke="#F2F1F1" stroke-opacity="0.05" stroke-miterlimit="10"/>
</g>
<defs>
<clipPath id="clip0_16_60">
<rect width="656" height="540" fill="white" transform="matrix(1 0 -0.00139096 0.999999 1.49414 0.219604)"/>
</clipPath>
</defs>
</svg>
