<svg width="657" height="540" viewBox="0 0 657 540" fill="none" xmlns="http://www.w3.org/2000/svg">
<g clip-path="url(#clip0_16_47)">
<path d="M465.187 252.207C466.559 220.051 441.882 190.056 418.418 197.658C394.955 205.261 376.077 227.887 373.735 249.873C371.394 271.859 410.84 259.467 428.483 267.126C446.174 274.893 464.502 267.379 465.187 252.207Z" stroke="#464646" stroke-opacity="0.6" stroke-miterlimit="10"/>
<path d="M367.587 193.67C345.37 202.916 346.906 225.234 332.593 243.884C324.226 254.846 325.279 260.838 327.641 266.507C331.491 275.518 348.937 281.32 355.702 283.089C376.277 288.661 409.277 285.857 426.678 297.365C457.508 317.625 477.021 279.086 484.81 259.206C494.828 233.811 488.831 214.9 472.911 204.542C437.204 181.671 437.163 164.89 367.587 193.67Z" stroke="#464646" stroke-opacity="0.6" stroke-miterlimit="10"/>
<path d="M436.993 165.043C425.041 150.141 394.728 166.748 343.032 175.505C303.934 182.152 313.947 225.271 289.548 254.802C264.45 285.293 283.291 289.609 310.633 298.177C341.224 307.892 399.24 305.007 428.029 327.321C471.303 360.817 493.505 290.521 507.51 265.877C527.759 230.286 516.138 210.699 496.046 196.699C475.359 182.445 445.385 175.567 436.993 165.043Z" stroke="#464646" stroke-opacity="0.6" stroke-miterlimit="10"/>
<path d="M448.95 147.593C437.126 122.488 393.691 146.888 319.194 156.695C263.91 163.919 281.414 224.65 246.802 265.238C210.11 308.05 237.834 314.785 281.109 321.604C325.435 328.604 395.281 327.226 430.125 356.487C485.925 403.413 511.241 301.294 531.491 271.643C562.7 225.951 546.946 203.635 520.635 188.095C494.227 172.339 456.829 164.201 448.95 147.593Z" stroke="#464646" stroke-opacity="0.6" stroke-miterlimit="10"/>
<path d="M555.301 276.606C597.371 221.262 577.4 195.998 545.228 178.884C512.921 161.829 468.365 152.816 461.032 129.817C449.683 94.8931 392.685 126.868 295.74 137.687C224.345 145.669 249.378 223.663 204.577 275.049C156.779 330.227 193.393 339.541 251.968 344.124C310.678 348.647 391.532 348.486 432.299 384.544C500.278 444.712 529.03 311.202 555.301 276.606Z" stroke="#464646" stroke-opacity="0.6" stroke-miterlimit="10"/>
<path d="M264.917 126.748C193.906 146.705 196.76 220.182 155.048 274.767C113.249 329.521 141.197 346.614 191.873 364.729C220.464 374.929 265.959 369.442 310.271 369.274C359.26 369.097 401.554 378.896 425.311 418.842C471.785 497.123 553.946 327.111 577.176 283.216C609.726 221.828 586.77 192.019 551.739 169.529C516.573 147.099 470.891 132.59 462.696 102.946C450.553 58.9951 370.241 97.2138 264.917 126.748Z" stroke="#464646" stroke-opacity="0.6" stroke-miterlimit="10"/>
<path d="M235.245 115.755C164.579 146.57 145.06 216.521 106.713 274.262C70.6825 328.511 89.3224 356.606 133.117 385.028C163.529 404.773 223.291 391.505 282.045 386.846C343.925 381.96 397.103 390.145 419.512 452.437C451.943 543.035 580.648 342.876 600.306 289.182C624.76 222.344 597.548 187.316 559.583 159.666C521.618 132.016 474.901 111.888 465.994 75.5749C452.773 23.0498 349.414 65.9597 235.245 115.755Z" stroke="#464646" stroke-opacity="0.6" stroke-miterlimit="10"/>
<path d="M209.203 108.14C138.59 149.162 96.6334 216.145 61.6953 277.155C31.0152 330.7 39.3945 371.257 77.5081 408.677C108.407 438.95 183.815 417.03 257.006 407.883C331.687 398.46 398.718 404.099 416.949 489.609C438.783 591.904 611.525 362.186 626.662 298.727C643.978 226.397 611.422 186.244 570.656 153.372C529.841 120.392 481.999 94.8146 472.379 51.8312C458.617 -9.51019 331.42 37.0206 209.203 108.14Z" stroke="#464646" stroke-opacity="0.6" stroke-miterlimit="10"/>
</g>
<defs>
<clipPath id="clip0_16_47">
<rect width="656" height="539" fill="white" transform="translate(0.258545 0.110107)"/>
</clipPath>
</defs>
</svg>
