<svg width="90" height="123" viewBox="0 0 90 123" fill="none" xmlns="http://www.w3.org/2000/svg">
<path d="M76.5165 113.859C76.5766 114.012 76.6067 114.179 76.6007 114.346C76.6114 114.483 76.5928 114.621 76.5461 114.75C76.4994 114.878 76.4258 114.995 76.3302 115.092C76.1117 115.275 75.8309 115.363 75.5489 115.336H73.791V113.412H75.5549C75.688 113.411 75.8208 113.424 75.9516 113.448C76.0718 113.47 76.192 113.515 76.2942 113.585C76.399 113.659 76.4821 113.76 76.5346 113.878L76.5165 113.862V113.859V113.859ZM90 123H0L9.43572 108.263H80.5402L89.997 123H90V123ZM11.5783 104.944H78.4097L72.021 94.9659H17.9609L11.5783 104.944ZM70.218 92.125L65.6504 85H24.3316L19.7639 92.125H70.218Z" fill="#2D7050"/>
<path d="M70 52C70 65.8101 59.0339 77 45.5 77C31.9661 77 21 65.8101 21 52C21 38.1899 31.9661 27 45.5 27C59.0339 27 70 38.1899 70 52" fill="#FF6B00"/>
<path d="M75.4115 1.17748C75.9876 1.37894 76.6267 1.20847 77.0318 0.743557L77.2598 0.477006H79.1111V6.69444H76.8908C76.7421 6.2431 76.521 5.82084 76.2367 5.44537C74.7665 3.59502 72.4801 2.85116 70.0408 2.85116C67.7544 2.85116 65.7501 3.58572 65.7501 5.2997C65.7952 5.95058 66.2062 6.52087 66.8003 6.75022C67.5984 7.06017 68.4355 7.26163 69.2847 7.33911C71.2349 7.61806 73.1252 7.83502 75.0395 8.16046C76.8607 8.4642 77.9979 8.82683 78.934 10.0976C79.9902 11.545 80.2842 13.4388 79.7142 15.1558C79.3001 16.6219 78.364 17.8678 77.0918 18.6489C76.0543 19.2436 74.9241 19.6464 73.7523 19.8391C71.8711 20.1056 69.9597 20.0407 68.0995 19.6469L64.979 18.9433C64.7924 18.9112 64.6013 18.9214 64.4189 18.9733C64.2365 19.0253 64.0672 19.1176 63.9229 19.244C63.7726 19.4069 63.6643 19.6062 63.6078 19.8236H61.4895V13.2776H63.4848C64.844 16.0051 67.8354 17.2139 70.8299 17.3006C72.5221 17.3533 74.2684 17.2448 75.1745 15.8315C75.3275 15.5183 75.3962 15.1684 75.3735 14.8184C75.3508 14.4683 75.2375 14.131 75.0455 13.8417C74.2654 12.8499 72.9812 12.9026 71.79 12.7786C69.5997 12.5492 68.1055 12.3137 68.1055 12.3137C66.3592 12.0037 64.559 11.6938 63.1248 10.6028C62.5114 10.0764 62.0321 9.40294 61.7288 8.64116C61.4254 7.87937 61.3072 7.05246 61.3845 6.23262C61.4717 5.40026 61.7172 4.5939 62.107 3.85987C62.4967 3.12584 63.0231 2.47863 63.6559 1.95543C64.406 1.35104 65.2521 0.870632 66.1522 0.535895C67.6344 -0.0312983 69.5007 -0.0622916 71.1479 0.0554862C72.6083 0.218772 74.0393 0.592253 75.3995 1.16508L75.4115 1.17748V1.17748ZM55.9027 4.18081C55.9657 4.00068 55.9858 3.80757 55.9615 3.61773C55.9371 3.42789 55.869 3.24685 55.7629 3.08984C55.6568 2.93283 55.5157 2.80443 55.3515 2.71543C55.1874 2.62644 55.005 2.57945 54.8196 2.57841H53.6794V0.483207H61.7086V2.58151H61.4175C61.022 2.56703 60.6287 2.64704 60.268 2.8153C59.9074 2.98357 59.5892 3.23555 59.3382 3.55163C58.7321 4.36987 58.5191 5.2997 58.1231 6.14584L52.9023 19.8143H50.0759L45.5633 6.75642L40.4925 19.8143H37.9572L32.5414 3.99175C32.2413 3.20449 31.8513 2.57841 30.9992 2.57841H30.3691V0.477006H39.9404V2.57531C39.3404 2.57531 38.6713 2.48853 38.2482 2.91625C37.5581 3.67251 37.9482 4.66432 38.2482 5.51046L40.5885 12.2889L45.0112 0.483207H48.6927C48.6927 0.57619 51.9542 10.0852 52.7583 12.4655L55.9027 4.18081ZM22.3819 3.87087C22.5005 3.77671 22.5874 3.64649 22.6305 3.49857C22.6735 3.35065 22.6705 3.1925 22.622 3.04642C22.5719 2.89988 22.4781 2.77353 22.3541 2.68554C22.2301 2.59754 22.0822 2.55244 21.9319 2.55672H21.3798V0.480106H29.4809V2.57841H28.8899C27.7707 2.57841 26.7506 3.84297 25.9314 4.57133L22.655 7.62736C23.5461 8.92911 29.631 16.0981 29.631 16.0981C30.3811 16.9039 30.8521 17.6943 32.9614 17.6943H33.3365V19.7926H21.9289V17.6943C22.748 17.6943 23.7531 17.7717 23.9571 16.8822C23.9907 16.6525 23.9701 16.4179 23.8969 16.1983C23.8238 15.9786 23.7003 15.7805 23.5371 15.6208L19.5075 10.5687L16.5761 13.3117V16.3336C16.5753 16.5117 16.6088 16.6881 16.6747 16.8527C16.7405 17.0173 16.8374 17.1666 16.9598 17.2921C17.0821 17.4176 17.2273 17.5167 17.3871 17.5836C17.5469 17.6505 17.7179 17.6839 17.8903 17.6819H18.9014V19.7833H9V17.6819C10.3022 17.6819 11.0043 17.093 11.4003 16.0888C11.5624 15.5619 11.6404 15.004 11.6344 14.4461V5.13853C11.6344 4.27069 11.6344 2.55052 10.1042 2.55052H9.006V0.473908H18.9074V2.57221H18.0913C16.6901 2.57221 16.5761 4.31718 16.5761 4.91227V9.38783L22.3819 3.85537V3.87087V3.87087Z" fill="white"/>
</svg>
