<svg width="123" height="67" viewBox="0 0 123 67" fill="none" xmlns="http://www.w3.org/2000/svg">
<path fill-rule="evenodd" clip-rule="evenodd" d="M2.6 3.6H15.3V1.9C15.3 0.8 16.2 0 17.2 0C18.3 0 19.1 0.9 19.1 1.9V3.5H32C33.4 3.5 34.6 5.1 34.6 6.5C34.6 7.9 33.4 9.5 32 9.5H19.2V12.5C20.4 12.6 21.3 13.7 21.3 14.9V20.4H40.1V13.4C40.1 11.9 41.3 10.6 42.9 10.6H80C81.5 10.6 82.8 11.8 82.8 13.4V20.5H101.6V15C101.6 13.8 102.5 12.8 103.7 12.6V9.6H90.9C89.5 9.6 88.3 8 88.3 6.6C88.3 5.2 89.5 3.6 90.9 3.6H103.6V1.9C103.6 0.8 104.5 0 105.5 0C106.6 0 107.4 0.9 107.4 1.9V3.5H120.1C121.5 3.5 122.7 5.1 122.7 6.5C122.7 7.9 121.5 9.5 120.1 9.5H107.4V12.5C108.6 12.6 109.5 13.7 109.5 14.9V31.1C109.5 32.4 108.4 33.5 107.1 33.5H103.8C102.5 33.5 101.4 32.4 101.4 31.1V28.4H80.1C79.9 28.7 79.6 28.9 79.4 29.2C78.9 29.8 78.4 30.5 77.9 31.2C84.6 33.5 90.4 37.6 94.8 43.2C99.1 48.9 101.3 55.9 101.2 63C101.2 65 99.6 66.6 97.6 66.6C95.6 66.6 94 65 94 63C94.1 57.4 92.4 52 89.1 47.5C85.6 43.1 80.8 39.7 75.4 37.9C75 39.8 74.8 41.8 74.5 44.1C74.2 46.2 72.8 47.9 70.7 47.9H52.8C50.7 47.9 49.3 46.2 49 44.1C48.7 41.7 48.5 39.7 48 37.8C42.6 39.5 37.7 42.8 34.1 47.2C30.6 51.7 28.8 57.2 29 62.9C29 64.9 27.4 66.5 25.4 66.5C23.4 66.5 21.8 64.9 21.8 62.9C21.7 55.6 24 48.5 28.5 42.7C32.9 37.3 38.7 33.3 45.3 31.1C45 30.7 44.7 30.3 44.3 29.8C43.9 29.3 43.4 28.8 42.9 28.3H21.3V31.1C21.3 32.4 20.2 33.5 18.9 33.5H15.6C14.3 33.5 13.2 32.4 13.2 31.1V15.1C13.2 13.9 14.1 12.9 15.3 12.7V9.7H2.6C1.2 9.6 0 8 0 6.6C0 5.2 1.2 3.6 2.6 3.6ZM61.4 22.8C63.9 22.8 66 24.8 66 27.4C66 30 64 32 61.5 32C59 32 56.9 30 56.9 27.4C56.9 24.8 58.9 22.8 61.4 22.8ZM61.4 16.9C67.2 16.9 71.9 21.6 71.9 27.4C71.9 33.2 67.2 37.9 61.4 37.9C55.6 37.9 50.9 33.2 50.9 27.4C50.9 21.6 55.6 16.9 61.4 16.9Z" fill="#02e502"/>
</svg>
