<svg width="17" height="17" viewBox="0 0 17 17" fill="none" xmlns="http://www.w3.org/2000/svg">
<path fill-rule="evenodd" clip-rule="evenodd" d="M1.92619 2.45846C2.87016 1.46577 3.20376 1.18735 3.60602 1.05777C3.8844 0.984953 4.17636 0.98091 4.45666 1.046C4.82567 1.15308 4.92328 1.23447 6.13328 2.43811C7.19631 3.49505 7.30251 3.60963 7.40441 3.8163C7.59927 4.17908 7.62971 4.60765 7.48808 4.99425C7.38081 5.28873 7.22849 5.48363 6.5838 6.12936L6.16331 6.5502C6.05288 6.66223 6.02693 6.83236 6.09895 6.97212C7.03319 8.56326 8.35864 9.89014 9.9499 10.8272C10.1331 10.9251 10.3586 10.8935 10.5077 10.749L10.9121 10.3518C11.1621 10.096 11.4267 9.85498 11.7048 9.62999C12.1416 9.36229 12.6858 9.3384 13.1444 9.56681C13.3686 9.6739 13.4426 9.74029 14.5389 10.8326C15.6695 11.958 15.7017 11.9934 15.8261 12.2515C16.0602 12.6787 16.0578 13.1961 15.8197 13.6211C15.6984 13.861 15.6244 13.9477 14.9883 14.5966C14.6043 14.9886 14.2428 15.3462 14.1849 15.3987C13.6601 15.8324 12.9869 16.0452 12.3077 15.992C11.065 15.8789 9.86222 15.4955 8.78389 14.8686C6.39515 13.6052 4.36162 11.7644 2.86908 9.51434C2.544 9.04345 2.25498 8.54874 2.0045 8.03441C1.33255 6.88471 0.985549 5.57458 1.00046 4.24358C1.05176 3.54726 1.38626 2.90224 1.92619 2.45846Z" stroke="white" stroke-width="2" stroke-linecap="round" stroke-linejoin="round"/>
</svg>
