<svg width="40" height="26" viewBox="0 0 40 26" fill="none" xmlns="http://www.w3.org/2000/svg">
<path d="M0.0152448 8.92342C0.0387653 8.75432 0.0858063 8.5929 0.172048 8.43917C0.532696 7.77044 1.42648 7.51679 2.18697 7.66283C2.94747 7.80888 3.5982 8.25469 4.23326 8.70051C5.03295 9.26163 5.83265 9.81505 6.63235 10.3762C6.85971 10.5376 7.10276 10.699 7.37716 10.7374C7.69861 10.7836 8.02006 10.6452 8.31798 10.5145C10.1918 9.6767 12.0577 8.83887 13.9315 8.00104C12.1361 6.9403 10.3486 5.87187 8.55319 4.81113C8.17686 4.58823 7.77701 4.33457 7.59669 3.94256C7.36149 3.42756 7.58885 2.80496 7.97302 2.39757C8.96872 1.34452 10.6857 1.48288 12.1205 1.75959C14.7704 2.27459 17.3891 2.99712 19.9214 3.9195C20.5643 4.15778 21.2307 4.40375 21.9207 4.36532C22.493 4.32689 23.0183 4.0886 23.5436 3.85801C24.8529 3.26615 26.1622 2.67428 27.4715 2.08242C29.3845 1.22153 31.3289 0.345269 33.4144 0.0762413C35.4999 -0.192787 37.7813 0.229972 39.2945 1.66735C39.6395 1.99018 39.9452 2.38988 39.9923 2.85876C40.0942 3.79651 39.1691 4.50368 38.338 4.98793C35.8997 6.41762 33.383 7.71664 30.8114 8.89267C29.949 9.28469 29.0474 9.68439 28.428 10.3915C28.0125 10.8604 27.7459 11.4369 27.4872 11.998C26.1701 14.8574 24.8607 17.7168 23.5436 20.5762C23.0261 21.7061 22.5009 22.8437 21.7325 23.8276C20.9642 24.8114 19.9293 25.6416 18.7062 25.9337C18.4004 26.0105 18.0633 26.0413 17.7732 25.9106C17.1068 25.6032 17.1382 24.6731 17.2715 23.9659C17.8752 20.7222 18.4867 17.4862 19.0904 14.2425C15.5623 15.7414 11.995 17.2479 8.20038 17.8321C7.22036 17.9858 6.20114 18.0627 5.21328 17.8936C4.73503 17.8167 4.23326 17.6784 3.80989 17.4478C3.39436 17.2249 3.23755 16.879 2.99451 16.4639C1.87336 14.5423 0.948225 12.5053 0.25045 10.3992C0.0936465 9.93804 -0.0474766 9.41536 0.0152448 8.92342ZM18.9571 24.012C19.9058 23.6969 20.4389 22.9821 20.8231 22.198C21.9677 19.8844 23.0497 17.54 24.163 15.211C24.4923 14.5192 24.8215 13.8274 25.1508 13.1279C25.8094 11.729 26.4601 10.3224 27.1109 8.92342C27.1422 8.85424 27.2128 8.77738 27.2912 8.74663C28.7024 8.08559 30.1293 7.4553 31.517 6.76351C33.1164 5.96411 34.6923 5.13397 36.2604 4.28077C36.9346 3.91181 37.554 3.45062 38.2518 2.99712C38.0401 2.82801 37.8989 2.69734 37.7421 2.58973C36.2996 1.5828 34.6766 1.52899 33.0067 1.78265C31.7131 1.9825 30.5684 2.58205 29.3924 3.08936C28.0439 3.66584 26.711 4.28077 25.3704 4.86494C23.3241 5.75658 21.2778 6.63284 19.2315 7.52448C17.8752 8.11634 16.5345 8.73126 15.1781 9.32312C12.9045 10.3147 10.6073 11.2755 8.34151 12.2901C7.48693 12.6744 6.71859 12.5515 6.01297 12.0672C4.84479 11.2678 3.73149 10.4069 2.58682 9.57677C2.27322 9.34618 1.92825 9.25394 1.53624 9.4461C1.58328 9.58446 1.61464 9.70745 1.66952 9.82274C2.49274 11.6214 3.35516 13.397 4.11565 15.2187C4.46846 16.0719 5.10352 16.3255 5.90321 16.3409C6.68723 16.3563 7.48693 16.3178 8.25526 16.1872C10.4505 15.8029 12.5517 15.1111 14.6058 14.2809C16.5188 13.5046 18.4004 12.6591 20.2978 11.852C20.6427 11.7059 20.9877 11.5753 21.364 11.4215C20.5643 15.6414 19.7646 19.8075 18.9571 24.012ZM9.62729 3.45831C9.83898 3.59666 10.0193 3.71196 10.1996 3.81957C12.0107 4.90337 13.8218 5.98717 15.6407 7.0556C15.7426 7.11709 15.9308 7.11709 16.0406 7.07097C16.7148 6.79425 17.3734 6.50217 18.0398 6.21008C18.5416 5.99486 19.0512 5.77964 19.6392 5.52598C18.7925 5.27233 18.0555 5.04173 17.3107 4.81882C15.6015 4.31151 13.9002 3.78114 12.1832 3.31995C11.36 3.09704 10.4897 3.05092 9.62729 3.45831Z" fill="#02E602"/>
</svg>
