<svg width="53" height="31" viewBox="0 0 53 31" fill="none" xmlns="http://www.w3.org/2000/svg">
<path d="M53 2.57501C52.7669 2.98944 52.4044 3.10247 51.9254 3.10247C49.1805 3.08991 46.4486 3.08991 43.7038 3.08991C43.5225 3.08991 43.3283 3.08991 43.147 3.08991C42.9269 3.84343 43.0046 4.00669 43.6002 4.39601C44.3252 4.87323 44.6878 5.5514 44.7007 6.39283C44.7137 7.42264 44.7266 8.465 44.7007 9.49481C44.6748 10.9139 43.6131 11.9437 42.2278 11.9186C40.8553 11.8935 39.8713 10.8888 39.8325 9.48225C39.8325 9.2562 39.8325 9.01758 39.8325 8.71617C39.224 8.71617 38.6672 8.71617 38.0975 8.71617C37.3336 8.71617 36.5827 8.70362 35.8188 8.72873C35.6634 8.72873 35.4304 8.81664 35.3656 8.92967C34.8219 9.95948 33.9285 10.3614 32.7762 10.3237C32.6208 10.3237 32.4784 10.3362 32.2842 10.3488C32.2842 11.1902 32.2842 11.994 32.2842 12.8354C33.0869 12.9484 33.8508 13.1871 34.3169 13.815C34.7183 14.3299 35.0679 14.9453 35.2491 15.5606C35.8576 17.6956 36.3885 19.8557 36.9193 22.0158C37.01 22.4176 37.1783 22.5432 37.5796 22.493C37.7609 22.4679 37.9551 22.4804 38.1493 22.5056C38.6025 22.5432 38.8485 22.807 38.8614 23.2214C38.8744 23.6107 38.6413 23.887 38.227 23.9624C37.994 24 37.748 24 37.502 24C36.6863 24 35.8835 24 35.0679 24C34.3687 24 34.0191 23.7363 34.0191 23.234C34.0191 22.7442 34.3299 22.5181 35.029 22.493C35.1326 22.493 35.2362 22.4804 35.3786 22.4679C35.3656 22.3172 35.3657 22.1916 35.3268 22.0786C34.796 19.9938 34.2522 17.8965 33.7213 15.8118C33.553 15.1588 33.2034 14.6564 32.5043 14.4304C32.2712 14.355 32.1029 14.3424 31.9605 14.6187C31.5073 15.523 30.7175 15.9374 29.7076 15.95C27.5584 15.9625 25.3962 15.9625 23.2469 15.95C22.237 15.95 21.4731 15.5104 20.9681 14.6313C20.9034 14.5183 20.6315 14.4052 20.502 14.4304C19.8676 14.5811 19.4662 15.008 19.2979 15.6234C18.7153 17.8337 18.1456 20.0566 17.5759 22.2669C17.563 22.3172 17.5759 22.3674 17.5889 22.4679C17.7831 22.4804 17.9902 22.4804 18.1845 22.493C18.6247 22.5307 18.8836 22.7442 18.9225 23.1712C18.9613 23.5856 18.7024 23.9121 18.2362 23.9624C17.6925 24.0126 17.1357 23.9875 16.579 23.9875C16.0611 23.9875 15.5432 24 15.0253 23.9875C14.4297 23.9749 14.0672 23.6735 14.0801 23.2088C14.0931 22.7567 14.4297 22.5056 15.0123 22.4804C15.9057 22.4553 15.9057 22.4553 16.1258 21.6139C16.6437 19.5794 17.1746 17.5323 17.6925 15.4978C18.0679 13.9908 19.026 13.0866 20.6574 12.8354C20.6574 12.0191 20.6574 11.2028 20.6574 10.3111C20.3596 10.3111 20.0877 10.3237 19.8158 10.3111C18.8318 10.286 18.1197 9.84645 17.6407 9.01758C17.563 8.87944 17.3817 8.72873 17.2393 8.72873C15.9446 8.70362 14.6498 8.71617 13.368 8.71617C13.3033 8.71617 13.2386 8.75385 13.122 8.77897C13.122 9.08037 13.135 9.38178 13.122 9.67063C13.0573 10.8763 12.1251 11.8056 10.8951 11.8935C9.65213 11.9814 8.47391 11.2153 8.35739 10.0223C8.22791 8.65338 8.29265 7.25938 8.34444 5.87793C8.37033 5.25 8.75876 4.68486 9.32844 4.43368C10.0017 4.13228 9.94991 3.66761 9.87223 3.07735C9.67802 3.07735 9.49676 3.07735 9.31549 3.07735C6.60949 3.07735 3.90348 3.07735 1.19748 3.07735C1.00326 3.07735 0.822002 3.07735 0.627791 3.05224C0.226422 3.002 -0.0454716 2.73827 0.00631798 2.38663C0.0451602 2.12289 0.278212 1.84661 0.498317 1.65823C0.640739 1.5452 0.925581 1.57031 1.14569 1.57031C3.85169 1.57031 6.5577 1.57031 9.2637 1.57031C9.45791 1.57031 9.63918 1.57031 9.85928 1.57031C10.0147 0.954942 9.66507 -0.0246307 10.7527 0.0130452C11.7237 0.0507211 11.4 0.942383 11.5036 1.57031C11.7237 1.57031 11.9179 1.57031 12.1251 1.57031C14.8311 1.57031 17.5371 1.57031 20.2431 1.57031C20.4632 1.57031 20.6963 1.58287 20.9034 1.64567C21.2789 1.75869 21.4472 2.04754 21.3954 2.4243C21.3566 2.7885 21.1365 3.002 20.7739 3.05224C20.5927 3.07735 20.3985 3.07735 20.2043 3.07735C17.4982 3.07735 14.7922 3.07735 12.0862 3.07735C11.905 3.07735 11.7108 3.07735 11.5165 3.07735C11.4 3.68016 11.3871 4.0946 12.0474 4.42112C12.7595 4.77277 13.0961 5.46349 13.122 6.25469C13.135 6.53098 13.122 6.81982 13.122 7.13379C13.2903 7.15891 13.4069 7.18402 13.5363 7.18402C14.7405 7.18402 15.9446 7.19658 17.1487 7.17146C17.304 7.17146 17.5371 7.04588 17.6148 6.90773C18.1068 6.02863 18.8707 5.58908 19.8806 5.57652C24.2568 5.56396 28.633 5.56396 33.0092 5.57652C34.0191 5.57652 34.783 6.02863 35.2621 6.92029C35.3139 7.02076 35.4433 7.15891 35.534 7.15891C36.9193 7.17146 38.3177 7.17146 39.7678 7.17146C39.7678 6.80726 39.7548 6.51841 39.7678 6.21701C39.7937 5.45093 40.1173 4.76021 40.8036 4.42112C41.4509 4.10716 41.4768 3.68017 41.3603 3.05224C41.179 3.05224 40.9719 3.05224 40.7777 3.05224C38.0846 3.05224 35.4045 3.05224 32.7114 3.05224C32.5172 3.05224 32.336 3.05223 32.1417 3.03968C31.7533 2.98944 31.5203 2.77594 31.4814 2.38663C31.4426 1.98475 31.6368 1.70846 32.0382 1.60799C32.2324 1.55776 32.4525 1.55776 32.6467 1.55776C35.3527 1.55776 38.0587 1.55776 40.7647 1.55776C40.946 1.55776 41.1402 1.55776 41.3603 1.55776C41.4768 0.929824 41.1402 -0.0246314 42.176 0.000485813C43.16 0.0130444 42.8751 0.917265 42.9787 1.55776C43.1859 1.55776 43.3671 1.55776 43.5613 1.55776C46.2673 1.55776 48.9734 1.57031 51.6794 1.55776C52.1714 1.55776 52.5857 1.64567 52.8964 2.04754C53 2.23592 53 2.41174 53 2.57501ZM22.3276 10.3362C22.3276 11.366 22.3276 12.2954 22.3276 13.2373C22.3276 14.1917 22.6125 14.468 23.5835 14.468C24.9948 14.468 26.406 14.468 27.8173 14.468C28.4517 14.468 29.0862 14.4806 29.7335 14.4555C30.2255 14.4429 30.6657 14.2545 30.6787 13.7271C30.7175 12.6219 30.6916 11.5042 30.6916 10.3614C30.3421 10.3362 30.0184 10.3362 29.6947 10.286C29.3063 10.2232 29.0991 9.97204 29.0862 9.59528C29.0732 9.21852 29.2674 8.95479 29.6558 8.86688C29.8371 8.8292 30.0313 8.81665 30.2126 8.81665C31.0412 8.81665 31.8699 8.81665 32.6855 8.81665C33.5789 8.81665 34.0062 8.55291 34.0062 7.97522C34.0062 7.39752 33.5789 7.10867 32.6985 7.10867C28.5683 7.10867 24.438 7.10867 20.3078 7.10867C20.1007 7.10867 19.8935 7.12123 19.6993 7.15891C19.2461 7.24682 19.026 7.56078 19.039 7.98778C19.0519 8.41477 19.285 8.71617 19.7511 8.77897C19.9583 8.80408 20.1654 8.80409 20.3726 8.81665C22.2629 8.81665 24.1661 8.81665 26.0565 8.81665C26.2636 8.81665 26.4708 8.8292 26.6779 8.85432C27.0923 8.92967 27.2994 9.1934 27.2865 9.59528C27.2735 9.99715 27.0405 10.2734 26.6262 10.286C25.8493 10.3237 25.0725 10.3111 24.3086 10.3111C23.6612 10.3362 23.0268 10.3362 22.3276 10.3362ZM11.659 8.00033C11.659 7.48543 11.6719 6.97053 11.659 6.44307C11.646 5.90304 11.3223 5.56396 10.8303 5.52628C10.3513 5.50117 9.93697 5.82769 9.92402 6.35515C9.89813 7.4352 9.88518 8.5278 9.92402 9.60784C9.93697 10.1353 10.3513 10.4367 10.8433 10.4116C11.3223 10.3865 11.6331 10.0599 11.646 9.54504C11.6719 9.03014 11.659 8.51524 11.659 8.00033ZM41.3991 7.98778C41.3991 8.47756 41.3991 8.95479 41.3991 9.44458C41.3991 9.48225 41.3991 9.50737 41.3991 9.54504C41.438 10.0851 41.7487 10.4116 42.2537 10.4241C42.7457 10.4367 43.1341 10.1102 43.147 9.58272C43.1729 8.51524 43.1729 7.44776 43.147 6.38027C43.1341 5.85281 42.7327 5.52628 42.2407 5.53884C41.7487 5.56396 41.425 5.90304 41.3991 6.44307C41.3991 6.95797 41.3991 7.47287 41.3991 7.98778Z" fill="#02E602"/>
<path d="M26.9606 31C26.5019 30.6346 26.0328 30.29 26.0015 29.6113C25.9702 28.8178 26.4289 28.2122 27.2108 28.0347C27.9092 27.8781 28.6077 28.2644 28.8891 28.9431C29.1706 29.6218 28.8996 30.3944 28.2637 30.8016C28.1698 30.8643 28.0135 30.8434 28.003 31C27.659 31 27.3046 31 26.9606 31Z" fill="#02E602"/>
<path d="M34.9999 28.5156C34.9894 29.3356 34.3181 30 33.5105 30C32.6714 30 31.9896 29.3149 32.0001 28.4741C32.0106 27.654 32.6714 27 33.5 27C34.3496 27 35.0104 27.654 34.9999 28.5156Z" fill="#02E602"/>
<path d="M26.4896 19C27.3437 19 28.0103 19.6585 27.9999 20.5052C27.9895 21.3309 27.3333 21.979 26.5104 21.9999C25.6771 22.0103 24.9897 21.31 25.0001 20.4738C25.0001 19.6585 25.6563 19.0105 26.4896 19Z" fill="#02E602"/>
<path d="M27.453 26C26.6064 25.9895 25.9897 25.3394 26.0001 24.49C26.0106 23.6407 26.7109 22.9696 27.547 23.0011C28.3832 23.0325 29.0103 23.6931 28.9999 24.532C28.9894 25.3918 28.3414 26.0105 27.453 26Z" fill="#02E602"/>
</svg>
