<svg width="40" height="40" viewBox="0 0 40 40" fill="none" xmlns="http://www.w3.org/2000/svg">
<g clip-path="url(#clip0_90_5)">
<path d="M19.805 37.9725C15.7939 37.9725 11.8106 37.9725 7.79944 37.9725C4.01114 37.9725 0.91922 35.4942 0.139276 31.8319C0.0278552 31.3087 0 30.813 0 30.2899C0 22.7449 0 15.2275 0 7.68261C0 3.35942 3.42618 0 7.79944 0C8.74652 0 9.72145 0 10.6685 0C11.5877 0 12.2841 0.660869 12.2841 1.51449C12.2841 2.36812 11.5877 3.00145 10.6685 3.02899C9.41504 3.05652 8.16156 2.91884 6.93593 3.11159C4.67967 3.46956 3.09192 5.34203 3.09192 7.62754C3.09192 13.6029 3.09192 19.6058 3.09192 25.5812C3.09192 27.1232 3.09192 28.6928 3.09192 30.2348C3.09192 32.9333 5.09749 34.9435 7.85515 34.9435C15.9331 34.9435 24.0111 34.9435 32.117 34.9435C33.2312 34.9435 33.844 34.3377 33.844 33.2362C33.844 31.9145 33.844 30.5652 33.844 29.2435C33.844 28.9406 33.7604 28.858 33.454 28.858C31.5599 28.8855 29.6379 28.8855 27.7437 28.858C24.2061 28.8304 21.4485 25.9942 21.5599 22.4971C21.6713 19.4406 24.3454 16.742 27.4373 16.7145C31.1142 16.6594 34.7632 16.687 38.4401 16.7145C39.3315 16.7145 40 17.3754 40 18.2565C40 21.2855 40 24.3145 40 27.3159C40 28.1971 39.3315 28.8304 38.468 28.858C38.1059 28.858 37.7716 28.8855 37.4095 28.858C36.9916 28.8029 36.9359 28.9681 36.9359 29.3536C36.9638 30.6478 36.9359 31.9145 36.9359 33.2087C36.9359 36.0174 34.9582 38 32.117 38C27.9944 37.9725 23.8997 37.9725 19.805 37.9725ZM31.9777 25.829C33.4819 25.829 34.9861 25.829 36.4902 25.829C36.7967 25.829 36.8802 25.7739 36.8802 25.4435C36.8524 23.6812 36.8524 21.8913 36.8802 20.129C36.8802 19.771 36.7688 19.7159 36.4624 19.7159C33.5655 19.7159 30.6685 19.7159 27.7716 19.7159C25.961 19.7159 24.5961 21.0377 24.5682 22.7449C24.5682 24.4522 25.9331 25.7739 27.7437 25.8014C29.1643 25.829 30.585 25.829 31.9777 25.829Z" fill="#02E602"/>
<path d="M19.9484 8.50475C15.8819 8.50475 11.7872 8.50475 7.72068 8.50475C6.82323 8.50475 6.17818 8.06885 6.03796 7.33326C5.86968 6.54318 6.26232 5.88933 7.18781 5.5624C8.4779 5.07201 9.76799 4.58162 11.0581 4.11847C16.2745 2.12966 21.547 0.168099 26.8195 -1.79347C28.0816 -2.25661 28.7827 -1.95693 29.2875 -0.730952C30.1008 1.23061 30.9142 3.16493 31.6994 5.1265C31.8116 5.39894 31.9518 5.50791 32.2603 5.50791C35.0088 5.53516 37 7.46948 37 10.1394C37 10.6025 37 11.0384 37 11.5016C36.972 12.3461 36.2989 13 35.4575 13C34.5881 13 33.915 12.3461 33.887 11.4743C33.887 11.0384 33.887 10.6025 33.887 10.1666C33.887 9.13136 33.2419 8.50475 32.1762 8.50475C28.1096 8.50475 24.015 8.50475 19.9484 8.50475ZM28.5023 5.48067C27.9974 4.22745 27.4646 3.00147 26.9878 1.77549C26.8756 1.47581 26.7354 1.42132 26.4269 1.5303C24.1552 2.4021 21.8836 3.24667 19.6119 4.09123C18.434 4.52713 17.2561 4.96304 16.1062 5.39894C16.1062 5.42618 16.1062 5.42618 16.1343 5.45343C20.2289 5.48067 24.3235 5.48067 28.5023 5.48067Z" fill="#02E602"/>
</g>
<defs>
<clipPath id="clip0_90_5">
<rect width="40" height="40" fill="white"/>
</clipPath>
</defs>
</svg>
