<svg width="31" height="29" viewBox="0 0 31 29" fill="none" xmlns="http://www.w3.org/2000/svg">
<path d="M10.2817 12.7562C10.0169 12.758 9.75449 12.7083 9.50955 12.6098C9.26461 12.5114 9.04208 12.3661 8.85488 12.1826C8.66769 11.9991 8.51957 11.781 8.41913 11.5409C8.31868 11.3007 8.26792 11.0434 8.2698 10.7839C8.2698 9.68189 9.15753 8.81009 10.2817 8.81009C11.4042 8.81009 12.2935 9.68189 12.2935 10.7839C12.2935 11.8844 11.4042 12.7562 10.2817 12.7562ZM20.7183 12.7562C20.4536 12.758 20.1912 12.7083 19.9462 12.6098C19.7013 12.5114 19.4787 12.3661 19.2915 12.1826C19.1044 11.9991 18.9562 11.781 18.8558 11.5409C18.7554 11.3007 18.7046 11.0434 18.7065 10.7839C18.7065 9.68189 19.5958 8.81009 20.7183 8.81009C21.8425 8.81009 22.7302 9.68189 22.7302 10.7839C22.7302 11.8844 21.8425 12.7562 20.7183 12.7562ZM7.3946 24.5808L8.51404 23.9116C9.78164 23.1539 11.2826 22.8623 12.7491 23.0889C13.0811 23.1395 13.3535 23.1794 13.5633 23.2055C14.1989 23.2884 14.8471 23.3299 15.5 23.3299C22.4202 23.3299 27.8687 18.6915 27.8687 13.1998C27.8687 7.70806 22.4202 3.06972 15.5 3.06972C8.5798 3.06972 3.13131 7.70806 3.13131 13.1998C3.13131 15.2964 3.91414 17.3025 5.37333 19.0031C5.44849 19.0906 5.56121 19.2134 5.70838 19.3638C6.3238 19.9921 6.79579 20.7416 7.09299 21.5625C7.3902 22.3834 7.50582 23.2568 7.43217 24.1249L7.39303 24.5808H7.3946ZM6.40823 28.7663C6.16198 28.9174 5.87771 28.9983 5.58724 29C5.29676 29.0017 5.01153 28.9241 4.76344 28.776C4.51535 28.6279 4.31418 28.415 4.18244 28.1612C4.0507 27.9074 3.99358 27.6227 4.01748 27.3389L4.31182 23.8701C4.34875 23.4362 4.29106 22.9994 4.14259 22.589C3.99413 22.1786 3.75827 21.8038 3.45071 21.4896C3.28649 21.3243 3.12776 21.1538 2.97475 20.9785C1.10535 18.7974 0 16.1083 0 13.1998C0 5.90921 6.93899 0 15.5 0C24.061 0 31 5.90921 31 13.1998C31 20.4904 24.061 26.3996 15.5 26.3996C14.7015 26.3996 13.9187 26.3489 13.1531 26.2492C12.8556 26.2097 12.5586 26.1667 12.2622 26.1202C11.5287 26.0068 10.7779 26.1525 10.1439 26.5316L6.40667 28.7663H6.40823Z" fill="white"/>
</svg>
